<?xml version="1.0" encoding="utf-8"?>
<!-- Generator: Adobe Illustrator 22.1.0, SVG Export Plug-In . SVG Version: 6.00 Build 0)  -->
<svg version="1.1" id="Layer_1" xmlns="http://www.w3.org/2000/svg" xmlns:xlink="http://www.w3.org/1999/xlink" x="0px" y="0px"
	 width="62px" height="60px" viewBox="0 0 62 60" style="enable-background:new 0 0 62 60;" xml:space="preserve">
<style type="text/css">
	.st0{fill:#FFFFFF;}
</style>
<g>
	<path class="st0" d="M43.5,2.5C43.5,1.1,42.4,0,41,0s-2.5,1.1-2.5,2.5v5c0,1.4,1.1,2.5,2.5,2.5c1.4,0,2.5-1.1,2.5-2.5V2.5z
		 M13.5,7.5c0,1.4-1.1,2.5-2.5,2.5S8.5,8.9,8.5,7.5v-5C8.5,1.1,9.6,0,11,0s2.5,1.1,2.5,2.5V7.5z M46,20v25H6V20H46z M51,5h-5v2.5
		c0,2.8-2.2,5-5,5s-5-2.2-5-5V5H16v2.5c0,2.8-2.2,5-5,5s-5-2.2-5-5V5H1v45h50V5z M21.9,40c-3.3,0-5.5-1.9-5.4-5.5h3.1
		c0.1,1.6,0.7,2.8,2.3,2.8c1,0,2.1-0.6,2.1-2c0-1.7-1.2-1.9-3.2-1.9v-2.4c1.4,0.1,3-0.1,3-1.5c0-1.1-0.9-1.7-1.8-1.7
		c-1.4,0-2,1.1-2,2.5h-3.1c0.1-3.5,2.3-5.3,5.1-5.3c2.4,0,4.9,1.5,4.9,4.1c0,1.3-0.6,2.4-1.6,2.9c1.3,0.5,2.1,1.7,2.1,3.2
		C27.3,38.2,24.8,40,21.9,40z M35.5,40h-3.3v-9.4h-3.5v-2.6c2.2,0.1,3.8-0.6,4.1-2.8h2.7V40z M61,12.5V60H6v-5h50V12.5H61z"/>
</g>
</svg>
