<?xml version="1.0" encoding="utf-8"?>
<!-- Generator: Adobe Illustrator 22.1.0, SVG Export Plug-In . SVG Version: 6.00 Build 0)  -->
<svg version="1.1" id="Layer_1" xmlns="http://www.w3.org/2000/svg" xmlns:xlink="http://www.w3.org/1999/xlink" x="0px" y="0px"
	 width="62px" height="60px" viewBox="0 0 62 60" style="enable-background:new 0 0 62 60;" xml:space="preserve">
<style type="text/css">
	.st0{fill:#FFFFFF;}
</style>
<g>
	<path class="st0" d="M18.1,40.3h33.6v2.6H18.1V40.3z M51.7,32.6H18.1v2.6h33.6V32.6z M51.7,17.1H38.8v2.6h12.9V17.1z M51.7,24.8
		H38.8v2.6h12.9V24.8z M7.8,4.2v44.4c0,2-2.6,2-2.6,0V9.3H0v41.3c0,2.9,2.3,5.2,5.2,5.2h51.6c2.9,0,5.2-2.3,5.2-5.2V4.2H7.8z
		 M56.8,48.1H12.9V9.3h43.9V48.1z M33.6,17.1H18.1v10.3h15.5V17.1z"/>
</g>
</svg>
