<?xml version="1.0" encoding="utf-8"?>
<!-- Generator: Adobe Illustrator 15.1.0, SVG Export Plug-In  -->
<!DOCTYPE svg PUBLIC "-//W3C//DTD SVG 1.1//EN" "http://www.w3.org/Graphics/SVG/1.1/DTD/svg11.dtd" [
	<!ENTITY ns_flows "http://ns.adobe.com/Flows/1.0/">
]>
<svg version="1.1"
	 xmlns="http://www.w3.org/2000/svg" xmlns:xlink="http://www.w3.org/1999/xlink" xmlns:a="http://ns.adobe.com/AdobeSVGViewerExtensions/3.0/"
	 x="0px" y="0px" width="122px" height="122px" viewBox="-1 -1 122 122" enable-background="new -1 -1 122 122"
	 xml:space="preserve">
<defs>
</defs>
<g>
	<path fill="#1D1D1B" d="M60,119.063c-32.568,0-59.064-26.496-59.064-59.064C0.936,27.431,27.431,0.936,60,0.936
		s59.064,26.496,59.064,59.063C119.064,92.567,92.568,119.063,60,119.063z"/>
	<path fill="#FFFFFF" d="M60,1.871c32.053,0,58.129,26.076,58.129,58.128c0,32.053-26.076,58.129-58.129,58.129
		c-32.052,0-58.129-26.076-58.129-58.129C1.871,27.947,27.947,1.871,60,1.871 M60,0C26.863,0,0,26.862,0,59.999
		c0,33.138,26.863,60,60,60c33.137,0,60-26.862,60-60C120,26.862,93.136,0,60,0L60,0z"/>
</g>
<path fill="#241F1F" stroke="#241F1F" stroke-width="2.533" d="M23.387,42.243c0-1.896,1.499-3.397,3.397-3.397h17.291
	c1.721,0,3.087,1.368,3.087,3.089c0,1.72-1.366,3.087-3.087,3.087H30.179v6.572h11.912c1.72,0,3.086,1.369,3.086,3.089
	s-1.367,3.088-3.086,3.088H30.179v8.823c0,1.896-1.499,3.395-3.395,3.395c-1.898,0-3.397-1.499-3.397-3.395V42.243z"/>
<path fill="#241F1F" stroke="#241F1F" stroke-width="2.533" d="M49.124,41.979c0-1.897,1.5-3.398,3.397-3.398
	c1.896,0,3.397,1.501,3.397,3.398v21.571H68.49c1.721,0,3.09,1.367,3.09,3.087s-1.369,3.088-3.09,3.088H52.521
	c-1.897,0-3.397-1.499-3.397-3.396V41.979z"/>
<path fill="#241F1F" stroke="#241F1F" stroke-width="2.533" d="M74.036,66.461c-0.749-0.529-1.278-1.499-1.278-2.558
	c0-1.766,1.41-3.132,3.175-3.132c0.883,0,1.499,0.309,1.941,0.617c2.339,1.722,4.897,2.78,7.897,2.78
	c2.779,0,4.455-1.103,4.455-2.912v-0.088c0-1.72-1.059-2.603-6.221-3.926c-6.221-1.587-10.234-3.308-10.234-9.439v-0.089
	c0-5.603,4.499-9.309,10.808-9.309c3.749,0,7.015,0.971,9.794,2.736c0.75,0.44,1.498,1.367,1.498,2.69
	c0,1.765-1.41,3.133-3.176,3.133c-0.661,0-1.19-0.177-1.72-0.485c-2.249-1.324-4.368-2.073-6.485-2.073
	c-2.603,0-3.969,1.19-3.969,2.69v0.088c0,2.029,1.322,2.691,6.66,4.058c6.265,1.633,9.793,3.882,9.793,9.265v0.088
	c0,6.132-4.676,9.573-11.337,9.573C81.579,70.168,77.476,68.932,74.036,66.461z"/>
<path fill="#D2202D" d="M23.026,41.883c0-1.897,1.5-3.397,3.396-3.397h17.292c1.721,0,3.089,1.369,3.089,3.088
	c0,1.722-1.368,3.088-3.089,3.088H29.82v6.573h11.91c1.722,0,3.089,1.368,3.089,3.087c0,1.721-1.367,3.089-3.089,3.089H29.82v8.821
	c0,1.897-1.5,3.397-3.397,3.397c-1.896,0-3.396-1.5-3.396-3.397V41.883z"/>
<path fill="#FEDC00" d="M48.764,41.618c0-1.897,1.499-3.396,3.397-3.396c1.897,0,3.396,1.5,3.396,3.396v21.571H68.13
	c1.719,0,3.088,1.368,3.088,3.089s-1.369,3.088-3.088,3.088H52.161c-1.898,0-3.397-1.5-3.397-3.398V41.618z"/>
<path fill="#3772A8" d="M73.674,66.102c-0.749-0.529-1.278-1.5-1.278-2.559c0-1.765,1.413-3.132,3.176-3.132
	c0.884,0,1.5,0.309,1.941,0.616c2.34,1.722,4.897,2.781,7.896,2.781c2.778,0,4.455-1.104,4.455-2.913v-0.088
	c0-1.721-1.059-2.604-6.219-3.926c-6.221-1.589-10.234-3.309-10.234-9.441v-0.087c0-5.604,4.498-9.309,10.806-9.309
	c3.751,0,7.015,0.97,9.794,2.735c0.75,0.441,1.5,1.367,1.5,2.69c0,1.765-1.411,3.132-3.176,3.132c-0.661,0-1.19-0.176-1.721-0.485
	c-2.25-1.324-4.366-2.073-6.484-2.073c-2.603,0-3.971,1.191-3.971,2.69v0.088c0,2.029,1.324,2.691,6.662,4.06
	c6.263,1.632,9.793,3.881,9.793,9.263v0.087c0,6.133-4.676,9.573-11.338,9.573C81.217,69.806,77.117,68.571,73.674,66.102z"/>
<path fill="#1D1D1B" d="M96.602,78.322c0,1.618-1.313,2.931-2.931,2.931H25.97c-1.619,0-2.932-1.313-2.932-2.931v-2.619
	c0-1.618,1.313-2.932,2.932-2.932h67.701c1.618,0,2.931,1.313,2.931,2.932V78.322z"/>
<path fill="#FFFFFF" d="M25.97,74.893c0-0.324,0.256-0.58,0.579-0.58h2.949c0.293,0,0.526,0.233,0.526,0.527
	c0,0.293-0.233,0.526-0.526,0.526h-2.37v1.12h2.031c0.293,0,0.527,0.233,0.527,0.527c0,0.293-0.233,0.526-0.527,0.526h-2.031v1.505
	c0,0.323-0.256,0.579-0.58,0.579c-0.323,0-0.579-0.256-0.579-0.579V74.893z"/>
<path fill="#FFFFFF" d="M30.125,78.834l1.835-4.145c0.128-0.286,0.361-0.459,0.677-0.459h0.068c0.316,0,0.542,0.173,0.669,0.459
	l1.835,4.145c0.038,0.082,0.06,0.158,0.06,0.233c0,0.308-0.241,0.557-0.549,0.557c-0.271,0-0.451-0.158-0.557-0.399l-0.354-0.827
	h-2.317l-0.369,0.865c-0.098,0.226-0.293,0.361-0.534,0.361c-0.301,0-0.534-0.241-0.534-0.542
	C30.058,78.999,30.087,78.916,30.125,78.834z M33.382,77.375l-0.729-1.738l-0.73,1.738H33.382z"/>
<path fill="#FFFFFF" d="M36.184,74.893c0-0.324,0.256-0.58,0.579-0.58h1.828c0.669,0,1.188,0.188,1.535,0.534
	c0.293,0.294,0.451,0.707,0.451,1.204v0.015c0,0.827-0.414,1.339-1.053,1.603l0.805,0.978c0.113,0.144,0.188,0.264,0.188,0.444
	c0,0.323-0.271,0.534-0.549,0.534c-0.263,0-0.436-0.128-0.571-0.302l-1.128-1.429h-0.925v1.151c0,0.323-0.256,0.579-0.58,0.579
	c-0.323,0-0.579-0.256-0.579-0.579V74.893z M38.516,76.871c0.564,0,0.888-0.302,0.888-0.745V76.11c0-0.496-0.346-0.752-0.91-0.752
	h-1.151v1.513H38.516z"/>
<path fill="#FFFFFF" d="M41.626,74.893c0-0.324,0.256-0.58,0.579-0.58h1.866c0.602,0,1.076,0.166,1.377,0.467
	c0.24,0.24,0.361,0.534,0.361,0.895v0.016c0,0.594-0.316,0.926-0.692,1.136c0.609,0.233,0.985,0.587,0.985,1.294v0.016
	c0,0.963-0.782,1.443-1.971,1.443h-1.926c-0.323,0-0.579-0.256-0.579-0.579V74.893z M43.823,76.441c0.511,0,0.835-0.165,0.835-0.557
	V75.87c0-0.347-0.271-0.542-0.76-0.542h-1.144v1.113H43.823z M44.131,78.563c0.512,0,0.82-0.18,0.82-0.571v-0.015
	c0-0.354-0.264-0.572-0.858-0.572h-1.339v1.158H44.131z"/>
<path fill="#FFFFFF" d="M47.06,74.847c0-0.323,0.256-0.579,0.579-0.579c0.324,0,0.58,0.256,0.58,0.579v3.679h2.144
	c0.293,0,0.527,0.233,0.527,0.526c0,0.294-0.233,0.526-0.527,0.526h-2.723c-0.323,0-0.579-0.256-0.579-0.579V74.847z"/>
<path fill="#FFFFFF" d="M51.719,78.999v-4.106c0-0.324,0.256-0.58,0.579-0.58h2.919c0.286,0,0.519,0.233,0.519,0.52
	c0,0.285-0.233,0.512-0.519,0.512H52.87v1.068h2.009c0.286,0,0.519,0.232,0.519,0.519s-0.233,0.512-0.519,0.512H52.87v1.105h2.385
	c0.286,0,0.519,0.233,0.519,0.52s-0.233,0.511-0.519,0.511h-2.957C51.975,79.578,51.719,79.322,51.719,78.999z"/>
<path fill="#FFFFFF" d="M56.815,74.847c0-0.323,0.256-0.579,0.579-0.579c0.324,0,0.58,0.256,0.58,0.579v4.198
	c0,0.323-0.256,0.579-0.58,0.579c-0.323,0-0.579-0.256-0.579-0.579V74.847z"/>
<path fill="#FFFFFF" d="M60.517,75.381h-1.113c-0.293,0-0.534-0.24-0.534-0.534c0-0.293,0.241-0.534,0.534-0.534h3.385
	c0.294,0,0.535,0.241,0.535,0.534c0,0.294-0.241,0.534-0.535,0.534h-1.113v3.664c0,0.323-0.256,0.579-0.578,0.579
	c-0.324,0-0.58-0.256-0.58-0.579V75.381z"/>
<path fill="#FFFFFF" d="M63.951,79.021c-0.128-0.09-0.219-0.256-0.219-0.436c0-0.301,0.241-0.534,0.542-0.534
	c0.15,0,0.256,0.053,0.331,0.104c0.398,0.294,0.835,0.475,1.347,0.475c0.474,0,0.76-0.188,0.76-0.496v-0.016
	c0-0.293-0.181-0.443-1.062-0.67c-1.061-0.271-1.744-0.563-1.744-1.609v-0.015c0-0.956,0.767-1.588,1.843-1.588
	c0.64,0,1.196,0.166,1.67,0.467c0.128,0.075,0.256,0.233,0.256,0.459c0,0.301-0.241,0.534-0.542,0.534
	c-0.113,0-0.203-0.03-0.293-0.083c-0.384-0.226-0.745-0.354-1.105-0.354c-0.444,0-0.678,0.203-0.678,0.459v0.015
	c0,0.346,0.226,0.459,1.136,0.692c1.068,0.278,1.671,0.662,1.671,1.579v0.016c0,1.046-0.798,1.633-1.934,1.633
	C65.237,79.654,64.537,79.443,63.951,79.021z"/>
<path fill="#FFFFFF" d="M70.099,77.548l-1.7-2.31c-0.083-0.113-0.144-0.248-0.144-0.414c0-0.309,0.256-0.557,0.58-0.557
	c0.263,0,0.428,0.143,0.571,0.354l1.278,1.844l1.302-1.858c0.144-0.211,0.316-0.347,0.557-0.347c0.354,0,0.564,0.248,0.564,0.564
	c0,0.158-0.075,0.301-0.15,0.406l-1.7,2.295v1.52c0,0.323-0.256,0.579-0.579,0.579s-0.579-0.256-0.579-0.579V77.548z"/>
<path fill="#FFFFFF" d="M73.644,79.021c-0.127-0.09-0.217-0.256-0.217-0.436c0-0.301,0.24-0.534,0.541-0.534
	c0.15,0,0.256,0.053,0.331,0.104c0.398,0.294,0.835,0.475,1.347,0.475c0.474,0,0.76-0.188,0.76-0.496v-0.016
	c0-0.293-0.181-0.443-1.061-0.67c-1.061-0.271-1.746-0.563-1.746-1.609v-0.015c0-0.956,0.768-1.588,1.844-1.588
	c0.639,0,1.195,0.166,1.67,0.467c0.128,0.075,0.256,0.233,0.256,0.459c0,0.301-0.24,0.534-0.542,0.534
	c-0.112,0-0.203-0.03-0.294-0.083c-0.383-0.226-0.744-0.354-1.105-0.354c-0.443,0-0.677,0.203-0.677,0.459v0.015
	c0,0.346,0.226,0.459,1.136,0.692c1.068,0.278,1.67,0.662,1.67,1.579v0.016c0,1.046-0.797,1.633-1.934,1.633
	C74.931,79.654,74.232,79.443,73.644,79.021z"/>
<path fill="#FFFFFF" d="M79.68,75.381h-1.113c-0.294,0-0.534-0.24-0.534-0.534c0-0.293,0.24-0.534,0.534-0.534h3.386
	c0.293,0,0.533,0.241,0.533,0.534c0,0.294-0.24,0.534-0.533,0.534h-1.113v3.664c0,0.323-0.256,0.579-0.58,0.579
	c-0.323,0-0.579-0.256-0.579-0.579V75.381z"/>
<path fill="#FFFFFF" d="M83.332,78.999v-4.106c0-0.324,0.256-0.58,0.579-0.58h2.919c0.285,0,0.52,0.233,0.52,0.52
	c0,0.285-0.234,0.512-0.52,0.512h-2.348v1.068h2.01c0.285,0,0.519,0.232,0.519,0.519s-0.233,0.512-0.519,0.512h-2.01v1.105h2.385
	c0.286,0,0.52,0.233,0.52,0.52s-0.233,0.511-0.52,0.511h-2.956C83.587,79.578,83.332,79.322,83.332,78.999z"/>
<path fill="#FFFFFF" d="M88.375,74.862c0-0.323,0.256-0.579,0.579-0.579h0.128c0.248,0,0.422,0.127,0.527,0.301l1.398,2.279
	l1.406-2.287c0.121-0.195,0.287-0.293,0.52-0.293h0.128c0.323,0,0.579,0.256,0.579,0.579v4.183c0,0.323-0.256,0.579-0.579,0.579
	c-0.315,0-0.571-0.264-0.571-0.579v-2.626l-1.016,1.565c-0.121,0.18-0.271,0.293-0.481,0.293c-0.211,0-0.361-0.113-0.481-0.293
	l-1.001-1.543v2.618c0,0.315-0.255,0.564-0.571,0.564s-0.564-0.249-0.564-0.564V74.862z"/>
</svg>
