<?xml version="1.0" encoding="utf-8"?>
<!-- Generator: Adobe Illustrator 22.1.0, SVG Export Plug-In . SVG Version: 6.00 Build 0)  -->
<svg version="1.1" id="Layer_1" xmlns="http://www.w3.org/2000/svg" xmlns:xlink="http://www.w3.org/1999/xlink" x="0px" y="0px"
	 width="62px" height="60px" viewBox="0 0 62 60" style="enable-background:new 0 0 62 60;" xml:space="preserve">
<style type="text/css">
	.st0{fill:#FFFFFF;}
</style>
<path id="email-7-icon_1_" class="st0" d="M31,0L1,22.9V60H1h60V22.9L31,0z M31,6.5l23.3,17.8l0,0L39.8,35.4L31,26.6l-8.7,8.7
	L7.7,24.3l0,0L31,6.5z M6.1,29.4l12.4,9.5L6.1,51.4C6.1,51.4,6.1,29.4,6.1,29.4z M9.8,54.9L31,33.8l21.1,21.1L9.8,54.9L9.8,54.9z
	 M55.9,51.5L43.4,39l12.5-9.6V51.5z"/>
</svg>
